PathFileType	4	(X/Y/Z)	 1.9Hzhigh3min.trc
DataRate	CameraRate	NumFrames	NumMarkers	Units	OrigDataRate	OrigDataStartFrame	OrigNumFrames
200	200	8	43	m	200	751	1000
Frame#	Time	C7			LSH			RSH			MAN			RASI			LASI			HIPR			HIPL			RPSI			LPSI			COX			RTHI1			RTHI2			RTHI3			RTHI4			RLKN			RMKN			RSHA1			RSHA2			RSHA3			RSHA4			RLMAL			RMMAL			RHEEL			RMET5			RMET1			RTOE			LTHI1			LTHI2			LTHI3			LTHI4			LLKN			LMKN			LSHA1			LSHA2			LSHA3			LSHA4			LLMAL			LMMAL			LHEEL			LMET5			LMET1			LTOE			
		X1	Y1	Z1	X2	Y2	Z2	X3	Y3	Z3	X4	Y4	Z4	X5	Y5	Z5	X6	Y6	Z6	X7	Y7	Z7	X8	Y8	Z8	X9	Y9	Z9	X10	Y10	Z10	X11	Y11	Z11	X12	Y12	Z12	X13	Y13	Z13	X14	Y14	Z14	X15	Y15	Z15	X16	Y16	Z16	X17	Y17	Z17	X18	Y18	Z18	X19	Y19	Z19	X20	Y20	Z20	X21	Y21	Z21	X22	Y22	Z22	X23	Y23	Z23	X24	Y24	Z24	X25	Y25	Z25	X26	Y26	Z26	X27	Y27	Z27	X28	Y28	Z28	X29	Y29	Z29	X30	Y30	Z30	X31	Y31	Z31	X32	Y32	Z32	X33	Y33	Z33	X34	Y34	Z34	X35	Y35	Z35	X36	Y36	Z36	X37	Y37	Z37	X38	Y38	Z38	X39	Y39	Z39	X40	Y40	Z40	X41	Y41	Z41	X42	Y42	Z42	X43	Y43	Z43	
751	3.7550	-0.329469	1.511938	-0.562154	-0.259144	1.509944	-0.714701	-0.258355	1.503906	-0.412846	-0.204559	1.461214	-0.570939	-0.170641	1.024005	-0.442679	-0.191453	1.025910	-0.676382	-0.200979	1.116626	-0.423064	-0.223736	1.106918	-0.697522	-0.322223	1.093979	-0.497628	-0.333559	1.093178	-0.586224	-0.334748	1.092694	-0.543675	-0.282333	0.879716	-0.370983	-0.285511	0.817446	-0.372591	-0.212520	0.821605	-0.375911	-0.217901	0.881343	-0.375377	-0.287163	0.599228	-0.389978	-0.275573	0.578858	-0.511000	-0.352861	0.464294	-0.372911	-0.360741	0.422731	-0.380723	-0.296655	0.457006	-0.366137	-0.300979	0.416695	-0.369390	-0.322204	0.246908	-0.391603	-0.295368	0.248001	-0.463767	-0.368509	0.250595	-0.439606	-0.260930	0.132289	-0.374971	-0.221923	0.129597	-0.434588	-0.207160	0.104394	-0.433548	-0.308311	0.876972	-0.729239	-0.305011	0.817315	-0.730697	-0.233366	0.822488	-0.741086	-0.244384	0.882871	-0.739400	-0.279791	0.606701	-0.720649	-0.271830	0.582537	-0.603598	-0.349977	0.438932	-0.732446	-0.356181	0.399664	-0.724925	-0.294685	0.394413	-0.726947	-0.295868	0.438028	-0.734094	-0.344059	0.253239	-0.713461	-0.317432	0.265720	-0.640711	-0.391066	0.262445	-0.673327	-0.289107	0.139023	-0.720942	-0.254000	0.135619	-0.653104	-0.242359	0.114916	-0.661229	
752	3.7600	-0.328741	1.516098	-0.561505	-0.259344	1.513762	-0.714527	-0.257226	1.507573	-0.412120	-0.203920	1.465165	-0.570629	-0.171416	1.027703	-0.442572	-0.192244	1.029811	-0.676293	-0.201301	1.120156	-0.423028	-0.224697	1.110616	-0.697294	-0.323032	1.097334	-0.497401	-0.334439	1.096519	-0.585951	-0.335587	1.095968	-0.543431	-0.282502	0.883027	-0.370770	-0.285173	0.820743	-0.372259	-0.212211	0.825503	-0.375320	-0.218081	0.885193	-0.374924	-0.285570	0.602524	-0.389480	-0.274000	0.582128	-0.510274	-0.352205	0.468091	-0.372438	-0.360402	0.426590	-0.380335	-0.296000	0.460300	-0.365996	-0.300672	0.420049	-0.369230	-0.323408	0.250543	-0.391546	-0.297236	0.251555	-0.463900	-0.370066	0.254637	-0.439039	-0.262137	0.135782	-0.375935	-0.223883	0.133149	-0.435986	-0.209297	0.107846	-0.435204	-0.308218	0.880005	-0.729379	-0.304118	0.820404	-0.730681	-0.232534	0.826487	-0.741032	-0.244348	0.886755	-0.739494	-0.278250	0.610266	-0.720340	-0.269503	0.586439	-0.603727	-0.349454	0.442790	-0.731951	-0.356036	0.403554	-0.724232	-0.294576	0.397726	-0.725950	-0.295318	0.441320	-0.733239	-0.344856	0.257132	-0.712526	-0.318560	0.269591	-0.639514	-0.392040	0.266668	-0.672515	-0.290095	0.142958	-0.719113	-0.255287	0.139803	-0.651167	-0.243633	0.119053	-0.659180	
753	3.7650	-0.328001	1.520011	-0.560870	-0.259222	1.517301	-0.714371	-0.256046	1.511029	-0.411428	-0.203255	1.468862	-0.570308	-0.172273	1.031326	-0.442413	-0.193022	1.033538	-0.676180	-0.201786	1.123617	-0.423042	-0.225670	1.114191	-0.696980	-0.323961	1.100373	-0.497233	-0.335381	1.099527	-0.585726	-0.336501	1.098909	-0.543235	-0.282698	0.886144	-0.370526	-0.284868	0.823849	-0.371862	-0.211934	0.829189	-0.374679	-0.218289	0.888836	-0.374448	-0.284002	0.605697	-0.389007	-0.272457	0.585389	-0.509587	-0.351517	0.471745	-0.371829	-0.360045	0.430304	-0.379801	-0.295292	0.463431	-0.365861	-0.300316	0.423246	-0.369047	-0.324608	0.254005	-0.391428	-0.299127	0.254953	-0.464007	-0.371654	0.258490	-0.438447	-0.263380	0.139111	-0.376870	-0.225895	0.136529	-0.437365	-0.211469	0.111134	-0.436820	-0.308101	0.882954	-0.729493	-0.303220	0.823424	-0.730705	-0.231692	0.830395	-0.740917	-0.244287	0.890543	-0.739471	-0.276783	0.613678	-0.720036	-0.267434	0.590184	-0.603866	-0.348960	0.446478	-0.731468	-0.355892	0.407300	-0.723576	-0.294487	0.400896	-0.725042	-0.294807	0.444465	-0.732480	-0.345667	0.260833	-0.711699	-0.319671	0.273317	-0.638458	-0.393029	0.270725	-0.671859	-0.291205	0.146599	-0.717281	-0.256755	0.143705	-0.649213	-0.245079	0.122891	-0.657109	
754	3.7700	-0.327270	1.523757	-0.560287	-0.259218	1.520571	-0.714227	-0.254823	1.514259	-0.410780	-0.202586	1.472319	-0.570001	-0.173194	1.034862	-0.442190	-0.193766	1.037079	-0.676030	-0.202438	1.126995	-0.423091	-0.226642	1.117627	-0.696595	-0.324990	1.103115	-0.497104	-0.336361	1.102215	-0.585544	-0.337477	1.101560	-0.543104	-0.282942	0.889070	-0.370238	-0.284617	0.826767	-0.371408	-0.211716	0.832664	-0.374003	-0.218548	0.892268	-0.373948	-0.282483	0.608743	-0.388565	-0.270972	0.588622	-0.508957	-0.350819	0.475236	-0.371114	-0.359658	0.433832	-0.379159	-0.294547	0.466405	-0.365680	-0.299926	0.426282	-0.368835	-0.325806	0.257289	-0.391263	-0.301021	0.258192	-0.464073	-0.373233	0.262084	-0.437781	-0.264602	0.142307	-0.377731	-0.227887	0.139774	-0.438677	-0.213579	0.114307	-0.438365	-0.307956	0.885834	-0.729584	-0.302354	0.826371	-0.730767	-0.230870	0.834183	-0.740742	-0.244197	0.894196	-0.739327	-0.275392	0.616939	-0.719749	-0.265680	0.593760	-0.603969	-0.348511	0.450001	-0.731004	-0.355762	0.410886	-0.722961	-0.294420	0.403956	-0.724248	-0.294350	0.447492	-0.731826	-0.346480	0.264341	-0.710984	-0.320743	0.276900	-0.637545	-0.394018	0.274595	-0.671349	-0.292417	0.149925	-0.715481	-0.258339	0.147362	-0.647298	-0.246651	0.126473	-0.655040	
755	3.7750	-0.326521	1.527271	-0.559730	-0.259136	1.523602	-0.714095	-0.253619	1.517318	-0.410172	-0.201944	1.475517	-0.569708	-0.174173	1.038286	-0.441896	-0.194462	1.040428	-0.675831	-0.203261	1.130263	-0.423151	-0.227618	1.120903	-0.696151	-0.326098	1.105563	-0.497020	-0.337366	1.104594	-0.585403	-0.338515	1.103930	-0.542992	-0.283250	0.891797	-0.369902	-0.284434	0.829487	-0.370906	-0.211567	0.835944	-0.373300	-0.218877	0.895499	-0.373421	-0.281041	0.611641	-0.388152	-0.269574	0.591802	-0.508404	-0.350117	0.478554	-0.370313	-0.359260	0.437158	-0.378473	-0.293823	0.469236	-0.365477	-0.299539	0.429165	-0.368599	-0.326998	0.260394	-0.391066	-0.302885	0.261274	-0.464115	-0.374820	0.265450	-0.437124	-0.265766	0.145390	-0.378486	-0.229810	0.142895	-0.439873	-0.215528	0.117434	-0.439802	-0.307785	0.888622	-0.729655	-0.301545	0.829244	-0.730891	-0.230094	0.837808	-0.740515	-0.244070	0.897692	-0.739073	-0.274087	0.620045	-0.719480	-0.264279	0.597156	-0.603992	-0.348116	0.453369	-0.730560	-0.355664	0.414302	-0.722385	-0.294370	0.406904	-0.723559	-0.293958	0.450422	-0.731274	-0.347283	0.267653	-0.710382	-0.321761	0.280309	-0.636781	-0.394988	0.278264	-0.670978	-0.293707	0.152982	-0.713730	-0.259989	0.150791	-0.645426	-0.248314	0.129819	-0.652993	
756	3.7800	-0.325773	1.530536	-0.559204	-0.258966	1.526381	-0.713966	-0.252397	1.520074	-0.409648	-0.201095	1.478399	-0.569369	-0.175196	1.041578	-0.441532	-0.195101	1.043579	-0.675571	-0.204267	1.133393	-0.423205	-0.228583	1.123997	-0.695663	-0.327273	1.107720	-0.496966	-0.338383	1.106674	-0.585294	-0.339588	1.106006	-0.542942	-0.283627	0.894313	-0.369518	-0.284311	0.832001	-0.370375	-0.211486	0.839029	-0.372588	-0.219279	0.898523	-0.372863	-0.279660	0.614377	-0.387762	-0.268276	0.594893	-0.507952	-0.349431	0.481683	-0.369478	-0.358902	0.440332	-0.377726	-0.293117	0.471903	-0.365228	-0.299166	0.431876	-0.368334	-0.328164	0.263318	-0.390838	-0.304705	0.264184	-0.464129	-0.376390	0.268563	-0.436470	-0.266868	0.148351	-0.379101	-0.231624	0.145902	-0.440927	-0.217353	0.120465	-0.441087	-0.307588	0.891296	-0.729698	-0.300806	0.832013	-0.731052	-0.229376	0.841233	-0.740241	-0.243907	0.900977	-0.738732	-0.272861	0.622980	-0.719238	-0.263241	0.600364	-0.603897	-0.347785	0.456575	-0.730136	-0.355589	0.417545	-0.721865	-0.294344	0.409753	-0.722986	-0.293640	0.453257	-0.730819	-0.348062	0.270756	-0.709896	-0.322728	0.283559	-0.636168	-0.395927	0.281715	-0.670737	-0.295037	0.155737	-0.712060	-0.261687	0.153953	-0.643641	-0.250009	0.132896	-0.651035	
757	3.7850	-0.325012	1.533579	-0.558701	-0.258729	1.528916	-0.713843	-0.251192	1.522591	-0.409099	-0.200440	1.481045	-0.569079	-0.176256	1.044712	-0.441090	-0.195676	1.046520	-0.675242	-0.205453	1.136360	-0.423237	-0.229531	1.126892	-0.695154	-0.328505	1.109582	-0.496937	-0.339406	1.108456	-0.585204	-0.340704	1.107789	-0.542889	-0.284067	0.896606	-0.369087	-0.284233	0.834297	-0.369834	-0.211460	0.841912	-0.371886	-0.219750	0.901344	-0.372281	-0.278319	0.616920	-0.387383	-0.267099	0.597850	-0.507597	-0.348766	0.484626	-0.368645	-0.358576	0.443346	-0.376889	-0.292444	0.474408	-0.364940	-0.298823	0.434415	-0.368039	-0.329313	0.266049	-0.390588	-0.306457	0.266916	-0.464121	-0.377922	0.271421	-0.435845	-0.267910	0.151199	-0.379578	-0.233306	0.148779	-0.441798	-0.218990	0.123411	-0.442136	-0.307367	0.893840	-0.729707	-0.300140	0.834647	-0.731224	-0.228722	0.844411	-0.739937	-0.243706	0.904020	-0.738333	-0.271723	0.625725	-0.719021	-0.262545	0.603363	-0.603670	-0.347522	0.459615	-0.729737	-0.355545	0.420619	-0.721399	-0.294337	0.412495	-0.722529	-0.293397	0.455991	-0.730452	-0.348811	0.273657	-0.709529	-0.323626	0.286617	-0.635693	-0.396831	0.284947	-0.670623	-0.296393	0.158240	-0.710516	-0.263402	0.156871	-0.641976	-0.251731	0.135707	-0.649198	
758	3.7900	-0.324257	1.536363	-0.558223	-0.258454	1.531212	-0.713691	-0.249974	1.524848	-0.408577	-0.199772	1.483431	-0.568790	-0.177340	1.047667	-0.440560	-0.196187	1.049242	-0.674847	-0.206817	1.139132	-0.423223	-0.230462	1.129563	-0.694637	-0.329783	1.111146	-0.496920	-0.340426	1.109952	-0.585132	-0.341847	1.109302	-0.542877	-0.284557	0.898662	-0.368619	-0.284183	0.836364	-0.369298	-0.211475	0.844598	-0.371209	-0.220279	0.903954	-0.371684	-0.276985	0.619252	-0.386999	-0.266068	0.600621	-0.507313	-0.348126	0.487363	-0.367864	-0.358284	0.446171	-0.376042	-0.291815	0.476728	-0.364614	-0.298515	0.436769	-0.367716	-0.330447	0.268588	-0.390340	-0.308121	0.269451	-0.464088	-0.379399	0.274025	-0.435272	-0.268899	0.153907	-0.379905	-0.234840	0.151519	-0.442464	-0.220434	0.126264	-0.442927	-0.307121	0.896222	-0.729666	-0.299548	0.837111	-0.731376	-0.228138	0.847314	-0.739618	-0.243470	0.906796	-0.737905	-0.270687	0.628266	-0.718829	-0.262143	0.606140	-0.603315	-0.347326	0.462481	-0.729383	-0.355538	0.423508	-0.720989	-0.294349	0.415122	-0.722184	-0.293223	0.458612	-0.730162	-0.349519	0.276351	-0.709270	-0.324469	0.289459	-0.635341	-0.397685	0.287928	-0.670612	-0.297746	0.160486	-0.709109	-0.265078	0.159530	-0.640446	-0.253440	0.138294	-0.647510	
